<?xml version="1.0" standalone="no"?>
<!DOCTYPE svg PUBLIC "-//W3C//DTD SVG 20010904//EN"
 "http://www.w3.org/TR/2001/REC-SVG-20010904/DTD/svg10.dtd">
<svg version="1.0" xmlns="http://www.w3.org/2000/svg"
 width="694.000000pt" height="664.000000pt" viewBox="0 0 694.000000 664.000000"
 preserveAspectRatio="xMidYMid meet">

<g transform="translate(0.000000,664.000000) scale(0.100000,-0.100000)"
fill="#000000" stroke="none">
<path d="M3242 6329 c-480 -30 -953 -180 -1377 -434 -225 -135 -509 -371 -680
-564 -359 -407 -597 -867 -709 -1372 -110 -498 -90 -1066 54 -1533 142 -459
357 -837 678 -1191 300 -331 732 -625 1146 -780 332 -124 602 -179 945 -195
475 -21 908 55 1339 236 377 158 776 440 1048 742 313 348 512 693 657 1137
192 592 190 1255 -5 1855 -200 612 -553 1107 -1073 1500 -394 299 -881 502
-1376 574 -108 16 -399 37 -479 34 -25 0 -100 -4 -168 -9z m1442 -1541 c-22
-42 -103 -120 -156 -150 -176 -98 -402 -67 -533 73 -39 42 -39 42 -4 13 94
-80 186 -114 305 -114 145 0 262 52 355 159 24 27 45 50 47 51 1 0 -5 -14 -14
-32z m-1815 -542 l464 -198 71 33 c39 18 165 77 280 131 114 54 212 98 217 98
4 0 20 -21 35 -46 22 -38 25 -48 13 -55 -8 -5 -84 -41 -170 -81 -87 -40 -155
-76 -152 -80 2 -4 -4 -5 -13 -1 -12 4 -15 3 -10 -5 5 -8 1 -10 -10 -5 -13 5
-15 3 -9 -7 5 -9 4 -11 -4 -6 -7 4 -49 -10 -96 -33 l-83 -41 -47 20 c-48 20
-82 27 -57 11 9 -5 15 -40 19 -102 5 -84 3 -97 -15 -119 -18 -22 -28 -25 -89
-25 -85 0 -135 24 -278 135 -126 98 -191 136 -263 156 -67 19 -123 9 -164 -28
-64 -60 -197 -158 -269 -200 -163 -94 -334 -88 -413 16 -39 52 -56 109 -63
209 -3 48 -7 87 -9 87 -13 0 -153 -77 -149 -82 4 -3 1 -9 -6 -14 -8 -4 -10 -3
-5 4 11 18 5 16 -88 -36 -47 -27 -83 -52 -79 -57 5 -4 3 -5 -4 -1 -14 8 -144
-59 -135 -70 4 -4 2 -4 -5 0 -14 8 -163 -70 -163 -85 0 -6 8 -36 17 -69 15
-48 23 -60 43 -65 14 -4 93 -35 175 -70 242 -102 284 -110 462 -89 262 31 572
92 743 146 88 28 105 31 225 29 263 -3 417 -35 590 -121 130 -64 217 -133 284
-224 21 -29 81 -137 133 -242 114 -229 194 -350 308 -465 135 -136 226 -171
363 -138 65 15 170 66 162 79 -3 5 0 7 8 4 15 -5 193 190 252 277 16 24 55 78
86 119 118 159 238 385 280 531 l22 76 -22 32 c-12 17 -27 28 -33 25 -7 -4 -8
-2 -4 4 4 6 -10 30 -30 52 -21 23 -40 37 -43 31 -10 -16 -58 -23 -80 -11 -29
15 -28 -6 1 -37 l21 -23 -21 0 c-11 0 -25 8 -31 18 -7 12 -8 1 -4 -39 6 -57
-17 -223 -42 -312 -19 -65 -63 -144 -97 -173 -81 -68 -229 -51 -390 43 -32 19
-63 31 -70 27 -6 -4 -8 -3 -5 3 5 8 -147 103 -166 103 -4 0 -35 13 -69 29 -35
15 -116 47 -181 70 -205 71 -257 97 -257 127 0 8 28 28 63 45 87 44 136 87
221 192 40 51 82 100 93 110 23 20 12 33 104 -128 12 -22 33 -62 46 -89 22
-43 26 -47 41 -34 195 164 341 286 355 297 15 12 25 10 79 -13 106 -46 182
-103 224 -167 37 -57 37 -58 60 -41 13 9 24 22 24 28 0 6 9 19 20 29 20 18 20
18 -7 54 -15 20 -59 74 -98 121 -39 47 -82 100 -95 119 l-24 34 44 38 c34 30
47 36 58 27 7 -6 181 -218 385 -471 205 -253 450 -556 544 -673 l173 -213 -63
-34 c-34 -19 -188 -101 -342 -182 -329 -173 -535 -282 -811 -429 l-201 -106
-264 91 c-619 213 -1114 379 -1129 379 -9 0 -104 -51 -211 -113 -107 -62 -378
-220 -604 -351 -225 -131 -477 -278 -560 -326 -82 -48 -160 -93 -172 -99 -25
-12 -9 -56 -258 719 -75 234 -174 540 -220 680 -259 794 -261 801 -240 813 11
7 65 36 120 66 55 29 242 130 415 224 173 93 383 206 465 250 83 44 176 95
209 113 l59 32 76 -32 c42 -18 285 -122 540 -230z"/>
<path d="M5080 3711 c0 -5 7 -14 15 -21 16 -14 18 -10 9 14 -6 17 -24 22 -24
7z"/>
<path d="M1251 3369 c2 -8 33 -101 69 -206 l64 -193 41 0 c56 1 155 21 338 69
435 114 696 65 800 -150 75 -155 76 -332 2 -549 -14 -41 -25 -75 -25 -77 0 -2
18 7 39 19 22 12 37 27 34 32 -4 5 -1 6 6 2 6 -4 46 14 90 41 l79 48 13 81 c7
46 10 127 7 190 -5 111 -21 165 -66 231 -10 16 -48 73 -83 127 -148 230 -224
261 -619 249 -224 -6 -273 -1 -520 57 -157 36 -274 49 -269 29z"/>
</g>
</svg>
